<svg width="27" height="27" viewBox="0 0 27 27" fill="none" xmlns="http://www.w3.org/2000/svg">
<path d="M13.5 6.19085L15.4092 8.10004L11.3593 12.15H20.25V14.85H11.3592L15.4092 18.9L13.5 20.8092L6.19085 13.5L13.5 6.19085Z" fill="#313131"/>
<path fill-rule="evenodd" clip-rule="evenodd" d="M13.5 0C6.04416 0 0 6.04416 0 13.5C0 20.9558 6.04416 27 13.5 27C20.9558 27 27 20.9558 27 13.5C27 6.04416 20.9558 0 13.5 0ZM2.7 13.5C2.7 7.53532 7.53532 2.7 13.5 2.7C19.4647 2.7 24.3 7.53532 24.3 13.5C24.3 19.4647 19.4647 24.3 13.5 24.3C7.53532 24.3 2.7 19.4647 2.7 13.5Z" fill="#313131"/>
</svg>
