<svg width="16" height="16" viewBox="0 0 16 16" fill="none" xmlns="http://www.w3.org/2000/svg">
<path d="M7.9795 0.00141679C7.9795 0.00141679 12.695 -0.209438 15.1951 4.51346H7.57826C7.57826 4.51346 6.14081 4.4673 4.91291 6.20491C4.56018 6.93423 4.18104 7.68551 4.60651 9.16611C3.9936 8.13143 1.35254 3.54914 1.35254 3.54914C1.35254 3.54914 3.2154 0.188129 7.97944 0.00141679H7.9795Z" fill="#EF3F36"/>
<path d="M14.9504 11.991C14.9504 11.991 12.7745 16.1669 7.42188 15.9604C8.08324 14.8203 11.2313 9.3879 11.2313 9.3879C11.2313 9.3879 11.9919 8.17093 11.0947 6.24224C10.6383 5.57225 10.1731 4.8715 8.67406 4.49802C9.87997 4.4871 15.182 4.49802 15.182 4.49802C15.182 4.49802 17.1682 7.78653 14.9504 11.991Z" fill="#FCD900"/>
<path d="M1.04182 12.0245C1.04182 12.0245 -1.50007 8.05939 1.35704 3.54297C2.01622 4.68308 5.16433 10.1155 5.16433 10.1155C5.16433 10.1155 5.84336 11.3809 7.96635 11.5697C8.77547 11.5104 9.61759 11.4599 10.6935 10.355C10.1004 11.4006 7.43939 15.9698 7.43939 15.9698C7.43939 15.9698 3.58583 16.0401 1.04175 12.0245H1.04182Z" fill="#61BC5B"/>
<path d="M7.41992 15.9998L8.49132 11.5449C8.49132 11.5449 9.6686 11.4526 10.6563 10.374C10.0434 11.4483 7.41992 15.9998 7.41992 15.9998Z" fill="#5AB055"/>
<path d="M4.39062 8.05056C4.39062 6.08676 5.98897 4.49414 7.95982 4.49414C9.93068 4.49414 11.529 6.08676 11.529 8.05056C11.529 10.0144 9.93068 11.607 7.95982 11.607C5.98897 11.6048 4.39062 10.0144 4.39062 8.05056Z" fill="white"/>
<path d="M4.98828 8.05002C4.98828 6.4157 6.31768 5.08887 7.9601 5.08887C9.60028 5.08887 10.9319 6.41352 10.9319 8.05002C10.9319 9.68441 9.60253 11.0112 7.9601 11.0112C6.31987 11.0112 4.98828 9.68441 4.98828 8.05002Z" fill="url(#paint0_linear_553_10026)"/>
<path d="M15.1797 4.50001L10.7684 5.78948C10.7684 5.78948 10.1026 4.8163 8.67188 4.50001C9.91304 4.4934 15.1797 4.50001 15.1797 4.50001Z" fill="#EACA05"/>
<path d="M4.52055 9.0033C3.901 7.93348 1.35254 3.54883 1.35254 3.54883L4.61972 6.76921C4.61972 6.76921 4.28459 7.4568 4.4103 8.44091L4.52049 9.0033H4.52055Z" fill="#DF3A32"/>
<defs>
<linearGradient id="paint0_linear_553_10026" x1="7.95995" y1="5.13068" x2="7.95995" y2="10.833" gradientUnits="userSpaceOnUse">
<stop stop-color="#86BBE5"/>
<stop offset="1" stop-color="#1072BA"/>
</linearGradient>
</defs>
</svg>
