<svg width="28" height="28" viewBox="0 0 28 28" fill="none" xmlns="http://www.w3.org/2000/svg">
<path d="M14.0002 12.0201L11.2002 9.2201L9.22031 11.2L12.0203 14L9.22031 16.8L11.2002 18.7799L14.0002 15.9799L16.8002 18.7799L18.7801 16.8L15.9801 14L18.7801 11.2L16.8002 9.2201L14.0002 12.0201Z" fill="#313131"/>
<path fill-rule="evenodd" clip-rule="evenodd" d="M14 0C6.26801 0 0 6.26801 0 14C0 21.732 6.26801 28 14 28C21.732 28 28 21.732 28 14C28 6.26801 21.732 0 14 0ZM2.8 14C2.8 7.81441 7.81441 2.8 14 2.8C20.1856 2.8 25.2 7.81441 25.2 14C25.2 20.1856 20.1856 25.2 14 25.2C7.81441 25.2 2.8 20.1856 2.8 14Z" fill="#313131"/>
</svg>
