<svg width="11" height="13" viewBox="0 0 11 13" fill="none" xmlns="http://www.w3.org/2000/svg">
<path d="M4.83579 5.3653C5.14528 5.3653 5.39618 5.61933 5.39618 5.93269V9.33704C5.39618 9.6504 5.14528 9.90443 4.83579 9.90443C4.5263 9.90443 4.2754 9.6504 4.2754 9.33704V5.93269C4.2754 5.61933 4.5263 5.3653 4.83579 5.3653Z" fill="#313131"/>
<path d="M7.63772 5.93269C7.63772 5.61933 7.38683 5.3653 7.07734 5.3653C6.76784 5.3653 6.51695 5.61933 6.51695 5.93269V9.33704C6.51695 9.6504 6.76784 9.90443 7.07734 9.90443C7.38683 9.90443 7.63772 9.6504 7.63772 9.33704V5.93269Z" fill="#313131"/>
<path fill-rule="evenodd" clip-rule="evenodd" d="M4.04329 1.15854C4.25347 0.945729 4.53854 0.826172 4.83579 0.826172H7.07734C7.37459 0.826172 7.65966 0.945729 7.86984 1.15854C8.08003 1.37135 8.19811 1.65999 8.19811 1.96095V3.09574H10.4397C10.7491 3.09574 11 3.34977 11 3.66313C11 3.97649 10.7491 4.23052 10.4397 4.23052H10.401L9.95214 10.5931C9.8893 11.4839 9.15726 12.174 8.27525 12.174H3.63776C2.75576 12.174 2.02372 11.4839 1.96088 10.5931L1.51202 4.23052H1.47347C1.16398 4.23052 0.913086 3.97649 0.913086 3.66313C0.913086 3.34977 1.16398 3.09574 1.47347 3.09574H3.71502V1.96095C3.71502 1.65999 3.8331 1.37135 4.04329 1.15854ZM2.63564 4.23052L3.0788 10.5122C3.09975 10.8092 3.34376 11.0392 3.63776 11.0392H8.27525C8.56925 11.0392 8.81327 10.8092 8.83422 10.5122L9.27737 4.23052H2.63564ZM7.07734 1.96095V3.09574H4.83579V1.96095H7.07734Z" fill="#313131"/>
</svg>
