<svg width="28" height="28" viewBox="0 0 35 35" fill="none" xmlns="http://www.w3.org/2000/svg">
<rect width="35" height="35" rx="5" fill="#F5415F"/>
<path d="M14.9444 15C15.6501 15 16.2222 15.5596 16.2222 16.25V23.75C16.2222 24.4404 15.6501 25 14.9444 25C14.2387 25 13.6667 24.4404 13.6667 23.75V16.25C13.6667 15.5596 14.2387 15 14.9444 15Z" fill="white"/>
<path d="M21.3333 16.25C21.3333 15.5596 20.7613 15 20.0556 15C19.3499 15 18.7778 15.5596 18.7778 16.25V23.75C18.7778 24.4404 19.3499 25 20.0556 25C20.7613 25 21.3333 24.4404 21.3333 23.75V16.25Z" fill="white"/>
<path fill-rule="evenodd" clip-rule="evenodd" d="M13.1374 5.73223C13.6167 5.26339 14.2667 5 14.9444 5H20.0556C20.7333 5 21.3833 5.26339 21.8626 5.73223C22.3419 6.20107 22.6111 6.83696 22.6111 7.5V10H27.7222C28.4279 10 29 10.5596 29 11.25C29 11.9404 28.4279 12.5 27.7222 12.5H27.6341L26.6106 26.5172C26.4673 28.4796 24.7981 30 22.787 30H12.2127C10.2016 30 8.53243 28.4796 8.38914 26.5172L7.36566 12.5H7.27778C6.57208 12.5 6 11.9404 6 11.25C6 10.5596 6.57208 10 7.27778 10H12.3889V7.5C12.3889 6.83696 12.6581 6.20107 13.1374 5.73223ZM9.92773 12.5L10.9382 26.3391C10.986 26.9932 11.5424 27.5 12.2127 27.5H22.787C23.4574 27.5 24.0138 26.9932 24.0615 26.3391L25.072 12.5H9.92773ZM20.0556 7.5V10H14.9444V7.5H20.0556Z" fill="white"/>
</svg>
