<svg width="24" height="24" viewBox="0 0 24 24" fill="none" xmlns="http://www.w3.org/2000/svg">
<rect x="0.179688" width="23.731" height="23.731" rx="5.27356" fill="url(#paint0_radial_773_17553)"/>
<rect x="0.179688" width="23.731" height="23.731" rx="5.27356" fill="url(#paint1_radial_773_17553)"/>
<rect x="0.179688" width="23.731" height="23.731" rx="5.27356" fill="url(#paint2_radial_773_17553)"/>
<path d="M17.5824 7.51571C17.5824 8.17102 17.0511 8.70226 16.3958 8.70226C15.7405 8.70226 15.2092 8.17102 15.2092 7.51571C15.2092 6.8604 15.7405 6.32916 16.3958 6.32916C17.0511 6.32916 17.5824 6.8604 17.5824 7.51571Z" fill="white"/>
<path fill-rule="evenodd" clip-rule="evenodd" d="M12.0451 15.8216C14.2295 15.8216 16.0003 14.0508 16.0003 11.8664C16.0003 9.68202 14.2295 7.91123 12.0451 7.91123C9.86073 7.91123 8.08994 9.68202 8.08994 11.8664C8.08994 14.0508 9.86073 15.8216 12.0451 15.8216ZM12.0451 14.2395C13.3557 14.2395 14.4182 13.177 14.4182 11.8664C14.4182 10.5558 13.3557 9.4933 12.0451 9.4933C10.7345 9.4933 9.67201 10.5558 9.67201 11.8664C9.67201 13.177 10.7345 14.2395 12.0451 14.2395Z" fill="white"/>
<path fill-rule="evenodd" clip-rule="evenodd" d="M4.13477 11.55C4.13477 8.89186 4.13477 7.5628 4.65207 6.54753C5.10711 5.65447 5.83318 4.9284 6.72624 4.47336C7.74151 3.95605 9.07057 3.95605 11.7287 3.95605H12.3615C15.0196 3.95605 16.3487 3.95605 17.364 4.47336C18.257 4.9284 18.9831 5.65447 19.4381 6.54753C19.9555 7.5628 19.9555 8.89186 19.9555 11.55V12.1828C19.9555 14.8409 19.9555 16.17 19.4381 17.1853C18.9831 18.0783 18.257 18.8044 17.364 19.2594C16.3487 19.7767 15.0196 19.7767 12.3615 19.7767H11.7287C9.07057 19.7767 7.74151 19.7767 6.72624 19.2594C5.83318 18.8044 5.10711 18.0783 4.65207 17.1853C4.13477 16.17 4.13477 14.8409 4.13477 12.1828V11.55ZM11.7287 5.53812H12.3615C13.7167 5.53812 14.6379 5.53935 15.35 5.59753C16.0436 5.6542 16.3983 5.75692 16.6457 5.88299C17.2411 6.18635 17.7252 6.6704 18.0285 7.26577C18.1546 7.51321 18.2573 7.86791 18.314 8.56152C18.3722 9.27359 18.3734 10.1948 18.3734 11.55V12.1828C18.3734 13.538 18.3722 14.4592 18.314 15.1713C18.2573 15.8649 18.1546 16.2196 18.0285 16.467C17.7252 17.0624 17.2411 17.5464 16.6457 17.8498C16.3983 17.9759 16.0436 18.0786 15.35 18.1353C14.6379 18.1934 13.7167 18.1947 12.3615 18.1947H11.7287C10.3735 18.1947 9.4523 18.1934 8.74023 18.1353C8.04662 18.0786 7.69192 17.9759 7.44448 17.8498C6.84911 17.5464 6.36506 17.0624 6.0617 16.467C5.93563 16.2196 5.83291 15.8649 5.77624 15.1713C5.71806 14.4592 5.71683 13.538 5.71683 12.1828V11.55C5.71683 10.1948 5.71806 9.27359 5.77624 8.56152C5.83291 7.86791 5.93563 7.51321 6.0617 7.26577C6.36506 6.6704 6.84911 6.18635 7.44448 5.88299C7.69192 5.75692 8.04662 5.6542 8.74023 5.59753C9.4523 5.53935 10.3735 5.53812 11.7287 5.53812Z" fill="white"/>
<defs>
<radialGradient id="paint0_radial_773_17553" cx="0" cy="0" r="1" gradientUnits="userSpaceOnUse" gradientTransform="translate(5.9806 40.2109) rotate(-69.5882) scale(42.9049 26.0876)">
<stop stop-color="#B13589"/>
<stop offset="0.79309" stop-color="#C62F94"/>
<stop offset="1" stop-color="#8A3AC8"/>
</radialGradient>
<radialGradient id="paint1_radial_773_17553" cx="0" cy="0" r="1" gradientUnits="userSpaceOnUse" gradientTransform="translate(7.80752 24.5786) rotate(-65.1363) scale(19.1495)">
<stop stop-color="#E0E8B7"/>
<stop offset="0.444662" stop-color="#FB8A2E"/>
<stop offset="0.71474" stop-color="#E2425C"/>
<stop offset="1" stop-color="#E2425C" stop-opacity="0"/>
</radialGradient>
<radialGradient id="paint2_radial_773_17553" cx="0" cy="0" r="1" gradientUnits="userSpaceOnUse" gradientTransform="translate(-1.09162 0.847537) rotate(-8.1301) scale(32.9615 7.05011)">
<stop offset="0.156701" stop-color="#406ADC"/>
<stop offset="0.467799" stop-color="#6A45BE"/>
<stop offset="1" stop-color="#6A45BE" stop-opacity="0"/>
</radialGradient>
</defs>
</svg>
