<svg width="153" height="47" viewBox="0 0 153 47" fill="none" xmlns="http://www.w3.org/2000/svg">
<rect x="1.86168" y="0.863636" width="150.257" height="29.3636" stroke="#313131" stroke-width="1.72727"/>
<path d="M23.4495 7.24947H28.5091L28.4882 21.8242H25.719V8.9568L22.3044 21.8242H18.3484L14.9337 8.9568V21.8242H12.1437V7.24947H17.2449L20.3472 20.0961L23.4495 7.24947ZM38.9484 10.914H41.905L38.3029 22.6987C37.9281 24.0451 37.4146 24.9682 36.7622 25.4679C36.1098 25.9815 35.1451 26.2383 33.868 26.2383C33.3822 26.2383 32.8825 26.2105 32.3689 26.155V24.0313C32.9797 24.059 33.4169 24.0729 33.6806 24.0729C34.2775 24.0729 34.7286 23.9549 35.034 23.7189C35.3394 23.4968 35.5892 23.0457 35.7836 22.3656L35.9293 21.8242H34.2845L30.4742 10.914H33.4724L36.5123 20.6791L38.9484 10.914ZM42.9709 14.5368C42.9709 12.2604 43.5539 10.4351 44.7199 9.0609C45.8997 7.68671 47.5377 6.99962 49.6337 6.99962C51.3687 6.99962 52.7776 7.45074 53.8603 8.35299C54.943 9.24135 55.6024 10.449 55.8383 11.9759L53.0483 12.2257C52.8956 11.3651 52.507 10.678 51.8823 10.1644C51.2716 9.63695 50.522 9.37322 49.6337 9.37322C48.3983 9.37322 47.4613 9.87292 46.8228 10.8723C46.1982 11.8579 45.8859 13.0794 45.8859 14.5368C45.8859 16.0637 46.2329 17.306 46.9269 18.2638C47.6348 19.2216 48.5995 19.7005 49.821 19.7005C50.7649 19.7005 51.5353 19.4159 52.1322 18.8468C52.7291 18.2638 53.0969 17.5281 53.2357 16.6398L56.0257 16.8272C55.8175 18.4651 55.179 19.7491 54.1102 20.6791C53.0553 21.6091 51.6255 22.0741 49.821 22.0741C47.6557 22.0741 45.9691 21.3939 44.7615 20.0336C43.5678 18.6733 42.9709 16.841 42.9709 14.5368ZM57.4466 18.8468C57.4466 16.8341 58.9735 15.682 62.0272 15.3905L64.8797 15.099V14.5577C64.8797 13.9747 64.7062 13.5097 64.3592 13.1627C64.0122 12.8156 63.4847 12.6421 62.7768 12.6421C62.1522 12.6421 61.6386 12.7809 61.236 13.0585C60.8474 13.3362 60.6322 13.7456 60.5906 14.287H58.0504C58.0921 13.0238 58.5501 12.1077 59.4246 11.5386C60.2991 10.9556 61.4165 10.6641 62.7768 10.6641C64.3453 10.6641 65.5529 11.0389 66.3997 11.7885C67.2464 12.538 67.6697 13.6554 67.6697 15.1407V21.8242H65.0671V19.8462C64.3037 21.3315 62.9781 22.0741 61.0903 22.0741C59.9104 22.0741 59.0082 21.7756 58.3835 21.1788C57.7589 20.5819 57.4466 19.8046 57.4466 18.8468ZM60.2158 18.7011C60.2158 19.1314 60.3616 19.4784 60.653 19.7421C60.9584 20.0058 61.4026 20.1377 61.9856 20.1377C62.8462 20.1377 63.5402 19.867 64.0677 19.3257C64.609 18.7705 64.8797 18.0903 64.8797 17.2852V16.8063L62.3812 17.0562C60.9376 17.195 60.2158 17.7433 60.2158 18.7011ZM70.1253 21.8242V10.914H72.728V12.7879C73.422 11.372 74.581 10.6641 76.2051 10.6641C77.8847 10.6641 78.9604 11.4137 79.4324 12.9128C80.1125 11.4137 81.2993 10.6641 82.9928 10.6641C84.0893 10.6641 84.943 11.0181 85.5537 11.726C86.1645 12.42 86.4699 13.4056 86.4699 14.6826V21.8242H83.6799V15.3905C83.6799 14.6409 83.5272 14.051 83.2218 13.6207C82.9303 13.1765 82.4861 12.9544 81.8892 12.9544C81.2091 12.9544 80.6747 13.2321 80.286 13.7873C79.8974 14.3286 79.703 15.0921 79.703 16.0776V21.8242H76.913V15.3905C76.913 14.6409 76.7603 14.051 76.4549 13.6207C76.1634 13.1765 75.7193 12.9544 75.1224 12.9544C74.4422 12.9544 73.9009 13.2321 73.4983 13.7873C73.1097 14.3286 72.9154 15.0921 72.9154 16.0776V21.8242H70.1253ZM88.9334 25.9884V10.914H91.5361V12.9128C92.3134 11.4137 93.5418 10.6641 95.2214 10.6641C96.5956 10.6641 97.713 11.1777 98.5736 12.2049C99.4481 13.2182 99.8853 14.6062 99.8853 16.3691C99.8853 18.1319 99.4481 19.527 98.5736 20.5541C97.713 21.5674 96.6025 22.0741 95.2422 22.0741C93.6876 22.0741 92.5147 21.4147 91.7235 20.0961V25.9884H88.9334ZM92.3481 13.8081C91.8484 14.4605 91.5985 15.3142 91.5985 16.3691C91.5985 17.424 91.8484 18.2777 92.3481 18.9301C92.8478 19.5825 93.521 19.9087 94.3677 19.9087C95.2145 19.9087 95.8877 19.5825 96.3874 18.9301C96.8871 18.2777 97.1369 17.424 97.1369 16.3691C97.1369 15.3142 96.8871 14.4605 96.3874 13.8081C95.8877 13.1557 95.2145 12.8295 94.3677 12.8295C93.521 12.8295 92.8478 13.1557 92.3481 13.8081ZM101.305 18.8468C101.305 16.8341 102.832 15.682 105.886 15.3905L108.738 15.099V14.5577C108.738 13.9747 108.565 13.5097 108.218 13.1627C107.871 12.8156 107.343 12.6421 106.635 12.6421C106.011 12.6421 105.497 12.7809 105.094 13.0585C104.706 13.3362 104.491 13.7456 104.449 14.287H101.909C101.951 13.0238 102.409 12.1077 103.283 11.5386C104.158 10.9556 105.275 10.6641 106.635 10.6641C108.204 10.6641 109.411 11.0389 110.258 11.7885C111.105 12.538 111.528 13.6554 111.528 15.1407V21.8242H108.926V19.8462C108.162 21.3315 106.837 22.0741 104.949 22.0741C103.769 22.0741 102.867 21.7756 102.242 21.1788C101.617 20.5819 101.305 19.8046 101.305 18.8468ZM104.074 18.7011C104.074 19.1314 104.22 19.4784 104.511 19.7421C104.817 20.0058 105.261 20.1377 105.844 20.1377C106.705 20.1377 107.399 19.867 107.926 19.3257C108.467 18.7705 108.738 18.0903 108.738 17.2852V16.8063L106.24 17.0562C104.796 17.195 104.074 17.7433 104.074 18.7011ZM113.963 9.37322V6.6873H116.899V9.37322H113.963ZM114.046 21.8242V10.914H116.815V21.8242H114.046ZM120.225 20.1169C119.336 19.1175 118.892 17.7919 118.892 16.1401C118.892 14.4883 119.336 13.1627 120.225 12.1632C121.113 11.1638 122.244 10.6641 123.619 10.6641C125.229 10.6641 126.416 11.3373 127.179 12.6838V10.914H129.761V20.5541C129.761 22.553 129.33 23.9966 128.47 24.8849C127.609 25.7872 126.284 26.2383 124.493 26.2383C123.008 26.2383 121.828 25.926 120.953 25.3013C120.093 24.6767 119.642 23.7398 119.6 22.4905H122.161C122.203 23.0041 122.418 23.4066 122.807 23.6981C123.209 23.9896 123.771 24.1354 124.493 24.1354C125.368 24.1354 125.999 23.8994 126.388 23.4274C126.776 22.9555 126.971 22.2337 126.971 21.262V19.867C126.207 21.033 125.09 21.616 123.619 21.616C122.244 21.616 121.113 21.1163 120.225 20.1169ZM122.432 13.7665C121.918 14.3772 121.661 15.1892 121.661 16.2025C121.661 17.2158 121.911 18.0209 122.411 18.6178C122.925 19.2146 123.598 19.5131 124.431 19.5131C125.263 19.5131 125.93 19.2146 126.429 18.6178C126.929 18.0209 127.179 17.2158 127.179 16.2025C127.179 15.1892 126.922 14.3772 126.409 13.7665C125.909 13.1418 125.25 12.8295 124.431 12.8295C123.612 12.8295 122.945 13.1418 122.432 13.7665ZM132.324 21.8242V10.914H134.927V12.8295C135.649 11.3859 136.919 10.6641 138.737 10.6641C139.986 10.6641 140.923 11.025 141.548 11.7468C142.186 12.4547 142.506 13.4958 142.506 14.87V21.8242H139.737V15.7236C139.737 14.8075 139.57 14.1204 139.237 13.6624C138.918 13.1904 138.39 12.9544 137.654 12.9544C136.835 12.9544 136.204 13.239 135.76 13.8081C135.329 14.3633 135.114 15.1198 135.114 16.0776V21.8242H132.324Z" fill="#313131"/>
<path d="M21.2126 41.5462C21.2126 40.5466 21.4682 39.776 21.9794 39.2342C22.4906 38.6849 23.185 38.4102 24.0625 38.4102C24.7797 38.4102 25.3825 38.6009 25.8709 38.9824C26.3592 39.3563 26.6491 39.8866 26.7407 40.5734L25.5618 40.6764C25.4855 40.2491 25.31 39.9248 25.0353 39.7035C24.7683 39.4822 24.444 39.3716 24.0625 39.3716C23.5665 39.3716 23.1697 39.5623 22.8722 39.9439C22.5746 40.3254 22.4258 40.8595 22.4258 41.5462C22.4258 42.2329 22.5746 42.7671 22.8722 43.1486C23.1774 43.5301 23.5856 43.7209 24.0968 43.7209C24.5012 43.7209 24.837 43.6064 25.104 43.3775C25.3787 43.1409 25.5542 42.8014 25.6305 42.3588L26.8094 42.4504C26.7178 43.16 26.4241 43.7094 25.9281 44.0985C25.4397 44.4877 24.8293 44.6823 24.0968 44.6823C23.2041 44.6823 22.4983 44.4114 21.9794 43.8696C21.4682 43.3279 21.2126 42.5534 21.2126 41.5462ZM27.9152 44.5449V36.1211H29.1399V39.4975C29.529 38.7726 30.2043 38.4102 31.1657 38.4102C31.8372 38.4102 32.3484 38.6009 32.6994 38.9824C33.0504 39.3563 33.2259 39.9095 33.2259 40.642V44.5449H32.0012V41.0312C32.0012 39.9553 31.5739 39.4174 30.7193 39.4174C30.2157 39.4174 29.8266 39.5852 29.5519 39.921C29.2772 40.2491 29.1399 40.7031 29.1399 41.283V44.5449H27.9152ZM34.3798 42.954C34.3798 41.8552 35.1848 41.2296 36.7948 41.077L38.4887 40.9167V40.4589C38.4887 40.1079 38.3781 39.8256 38.1568 39.6119C37.9432 39.3983 37.6189 39.2915 37.184 39.2915C36.7948 39.2915 36.4743 39.383 36.2225 39.5662C35.9707 39.7417 35.8334 40.0011 35.8105 40.3444H34.6889C34.7117 39.6806 34.9521 39.1923 35.4099 38.8794C35.8677 38.5666 36.4591 38.4102 37.184 38.4102C38.0004 38.4102 38.6261 38.6047 39.061 38.9939C39.4959 39.383 39.7134 39.9553 39.7134 40.7107V44.5449H38.5803V43.3775C38.3895 43.7895 38.1034 44.11 37.7219 44.3389C37.3404 44.5678 36.8787 44.6823 36.337 44.6823C35.6884 44.6823 35.2001 44.522 34.872 44.2016C34.5439 43.8811 34.3798 43.4652 34.3798 42.954ZM35.593 42.8968C35.593 43.1715 35.6846 43.3966 35.8677 43.5721C36.0585 43.7399 36.3408 43.8239 36.7147 43.8239C37.2564 43.8239 37.6876 43.656 38.008 43.3203C38.3285 42.9769 38.4887 42.5382 38.4887 42.004V41.6836L36.955 41.8324C36.047 41.9239 35.593 42.2787 35.593 42.8968ZM41.1713 36.1211H42.396V44.5449H41.1713V36.1211ZM43.9098 36.1211H45.1344V44.5449H43.9098V36.1211ZM46.3277 41.5462C46.3277 40.5161 46.5948 39.7378 47.1289 39.2113C47.663 38.6772 48.3726 38.4102 49.2577 38.4102C51.1272 38.4102 52.0619 39.5242 52.0619 41.7522V41.901H47.5524C47.5981 42.5191 47.7775 42.9922 48.0903 43.3203C48.4108 43.6407 48.8266 43.801 49.3378 43.801C50.0627 43.801 50.5549 43.4919 50.8143 42.8739L51.9817 42.954C51.8215 43.4958 51.5125 43.9192 51.0547 44.2244C50.6045 44.5297 50.0322 44.6823 49.3378 44.6823C48.4146 44.6823 47.6821 44.419 47.1403 43.8925C46.5986 43.366 46.3277 42.5839 46.3277 41.5462ZM47.5638 41.0998H50.8486C50.8258 40.5352 50.6731 40.0926 50.3908 39.7722C50.1085 39.4517 49.7308 39.2915 49.2577 39.2915C48.7847 39.2915 48.3955 39.4441 48.0903 39.7493C47.7927 40.0545 47.6172 40.5047 47.5638 41.0998ZM53.2315 44.5449V38.5475H54.3646V39.6577C54.7461 38.826 55.4519 38.4102 56.482 38.4102C57.1535 38.4102 57.6647 38.6009 58.0157 38.9824C58.3667 39.3563 58.5422 39.9095 58.5422 40.642V44.5449H57.3176V41.0312C57.3176 39.9553 56.8903 39.4174 56.0357 39.4174C55.5321 39.4174 55.1429 39.5852 54.8682 39.921C54.5935 40.2491 54.4562 40.7031 54.4562 41.283V44.5449H53.2315ZM60.3829 43.6064C59.9098 43.057 59.6733 42.3283 59.6733 41.4203C59.6733 40.5123 59.9098 39.7836 60.3829 39.2342C60.8636 38.6849 61.4778 38.4102 62.2256 38.4102C62.6681 38.4102 63.0611 38.517 63.4045 38.7306C63.7555 38.9443 64.0302 39.2419 64.2285 39.6234V38.5475H65.3616V44.007C65.3616 45.0294 65.1404 45.7772 64.6978 46.2503C64.2552 46.731 63.5609 46.9714 62.6147 46.9714C61.8364 46.9714 61.2184 46.8035 60.7606 46.4678C60.3104 46.1397 60.0738 45.6437 60.051 44.9798H61.1841C61.2069 45.3232 61.3405 45.5865 61.5846 45.7696C61.8364 45.9527 62.1798 46.0443 62.6147 46.0443C63.1565 46.0443 63.5456 45.8993 63.7822 45.6093C64.0187 45.327 64.137 44.8959 64.137 44.316V43.366C63.7249 44.0757 63.0916 44.4305 62.237 44.4305C61.4816 44.4305 60.8636 44.1558 60.3829 43.6064ZM60.8865 41.4547C60.8865 42.0727 61.0391 42.5687 61.3443 42.9426C61.6495 43.3164 62.0539 43.5034 62.5575 43.5034C63.0687 43.5034 63.477 43.3164 63.7822 42.9426C64.0874 42.5687 64.24 42.0727 64.24 41.4547C64.24 40.829 64.0874 40.3254 63.7822 39.9439C63.477 39.5623 63.0687 39.3716 62.5575 39.3716C62.0539 39.3716 61.6495 39.5623 61.3443 39.9439C61.0391 40.3254 60.8865 40.829 60.8865 41.4547ZM66.5472 41.5462C66.5472 40.5161 66.8143 39.7378 67.3484 39.2113C67.8825 38.6772 68.5921 38.4102 69.4773 38.4102C71.3467 38.4102 72.2814 39.5242 72.2814 41.7522V41.901H67.7719C67.8177 42.5191 67.997 42.9922 68.3098 43.3203C68.6303 43.6407 69.0461 43.801 69.5574 43.801C70.2823 43.801 70.7744 43.4919 71.0338 42.8739L72.2013 42.954C72.041 43.4958 71.732 43.9192 71.2742 44.2244C70.824 44.5297 70.2517 44.6823 69.5574 44.6823C68.6341 44.6823 67.9016 44.419 67.3598 43.8925C66.8181 43.366 66.5472 42.5839 66.5472 41.5462ZM67.7833 41.0998H71.0682C71.0453 40.5352 70.8927 40.0926 70.6104 39.7722C70.328 39.4517 69.9503 39.2915 69.4773 39.2915C69.0042 39.2915 68.615 39.4441 68.3098 39.7493C68.0122 40.0545 67.8367 40.5047 67.7833 41.0998ZM75.746 41.5462C75.746 40.5161 76.0131 39.7378 76.5472 39.2113C77.0813 38.6772 77.791 38.4102 78.6761 38.4102C80.5455 38.4102 81.4802 39.5242 81.4802 41.7522V41.901H76.9707C77.0165 42.5191 77.1958 42.9922 77.5086 43.3203C77.8291 43.6407 78.245 43.801 78.7562 43.801C79.4811 43.801 79.9732 43.4919 80.2327 42.8739L81.4001 42.954C81.2399 43.4958 80.9308 43.9192 80.473 44.2244C80.0228 44.5297 79.4506 44.6823 78.7562 44.6823C77.8329 44.6823 77.1004 44.419 76.5587 43.8925C76.0169 43.366 75.746 42.5839 75.746 41.5462ZM76.9822 41.0998H80.267C80.2441 40.5352 80.0915 40.0926 79.8092 39.7722C79.5269 39.4517 79.1492 39.2915 78.6761 39.2915C78.203 39.2915 77.8139 39.4441 77.5086 39.7493C77.2111 40.0545 77.0356 40.5047 76.9822 41.0998ZM86.5682 38.5475H87.873L85.8128 44.5449H83.9701L81.9214 38.5475H83.2376L84.8972 43.8353L86.5682 38.5475ZM88.298 41.5462C88.298 40.5161 88.5651 39.7378 89.0992 39.2113C89.6333 38.6772 90.3429 38.4102 91.2281 38.4102C93.0975 38.4102 94.0322 39.5242 94.0322 41.7522V41.901H89.5227C89.5685 42.5191 89.7478 42.9922 90.0606 43.3203C90.3811 43.6407 90.7969 43.801 91.3082 43.801C92.0331 43.801 92.5252 43.4919 92.7846 42.8739L93.9521 42.954C93.7918 43.4958 93.4828 43.9192 93.025 44.2244C92.5748 44.5297 92.0025 44.6823 91.3082 44.6823C90.3849 44.6823 89.6524 44.419 89.1107 43.8925C88.5689 43.366 88.298 42.5839 88.298 41.5462ZM89.5341 41.0998H92.819C92.7961 40.5352 92.6435 40.0926 92.3612 39.7722C92.0788 39.4517 91.7011 39.2915 91.2281 39.2915C90.755 39.2915 90.3658 39.4441 90.0606 39.7493C89.763 40.0545 89.5875 40.5047 89.5341 41.0998ZM98.1204 38.4331C98.3646 38.4331 98.5897 38.4598 98.7957 38.5132V39.6005C98.5058 39.5471 98.2273 39.5204 97.9602 39.5204C97.4413 39.5204 97.056 39.6882 96.8042 40.024C96.5524 40.3521 96.4265 40.8671 96.4265 41.5691V44.5449H95.2019V38.5475H96.335V39.7493C96.6631 38.8718 97.2582 38.4331 98.1204 38.4331ZM104.062 38.5475H105.367L103.238 45.1515C103.039 45.8459 102.784 46.3228 102.471 46.5822C102.158 46.8416 101.685 46.9714 101.052 46.9714C100.815 46.9714 100.571 46.9561 100.319 46.9256V45.987C100.624 46.0023 100.842 46.0099 100.972 46.0099C101.292 46.0099 101.536 45.9375 101.704 45.7925C101.872 45.6551 102.013 45.3881 102.128 44.9913L102.265 44.5449H101.555L99.3692 38.5475H100.685L102.54 44.0528L104.062 38.5475ZM109.7 39.4746H108.246V42.7022C108.246 43.0608 108.296 43.305 108.395 43.4347C108.502 43.5644 108.704 43.6293 109.001 43.6293C109.2 43.6293 109.432 43.6102 109.7 43.5721V44.5564C109.356 44.6098 109.047 44.6365 108.772 44.6365C108.147 44.6365 107.697 44.5068 107.422 44.2473C107.155 43.9803 107.021 43.5301 107.021 42.8968V39.4746H105.774V38.5704H106.712C106.85 38.5704 106.945 38.5437 106.998 38.4903C107.059 38.4292 107.09 38.3339 107.09 38.2041V37.2084H108.246V38.5475H109.7V39.4746ZM110.839 44.5449V36.1211H112.063V39.4975C112.453 38.7726 113.128 38.4102 114.089 38.4102C114.761 38.4102 115.272 38.6009 115.623 38.9824C115.974 39.3563 116.149 39.9095 116.149 40.642V44.5449H114.925V41.0312C114.925 39.9553 114.497 39.4174 113.643 39.4174C113.139 39.4174 112.75 39.5852 112.475 39.921C112.201 40.2491 112.063 40.7031 112.063 41.283V44.5449H110.839ZM117.578 37.6204V36.2584H118.871V37.6204H117.578ZM117.612 44.5449V38.5475H118.837V44.5449H117.612ZM120.373 44.5449V38.5475H121.506V39.6577C121.887 38.826 122.593 38.4102 123.623 38.4102C124.295 38.4102 124.806 38.6009 125.157 38.9824C125.508 39.3563 125.684 39.9095 125.684 40.642V44.5449H124.459V41.0312C124.459 39.9553 124.032 39.4174 123.177 39.4174C122.673 39.4174 122.284 39.5852 122.01 39.921C121.735 40.2491 121.598 40.7031 121.598 41.283V44.5449H120.373ZM127.524 43.6064C127.051 43.057 126.815 42.3283 126.815 41.4203C126.815 40.5123 127.051 39.7836 127.524 39.2342C128.005 38.6849 128.619 38.4102 129.367 38.4102C129.809 38.4102 130.202 38.517 130.546 38.7306C130.897 38.9443 131.171 39.2419 131.37 39.6234V38.5475H132.503V44.007C132.503 45.0294 132.282 45.7772 131.839 46.2503C131.397 46.731 130.702 46.9714 129.756 46.9714C128.978 46.9714 128.36 46.8035 127.902 46.4678C127.452 46.1397 127.215 45.6437 127.192 44.9798H128.325C128.348 45.3232 128.482 45.5865 128.726 45.7696C128.978 45.9527 129.321 46.0443 129.756 46.0443C130.298 46.0443 130.687 45.8993 130.924 45.6093C131.16 45.327 131.278 44.8959 131.278 44.316V43.366C130.866 44.0757 130.233 44.4305 129.378 44.4305C128.623 44.4305 128.005 44.1558 127.524 43.6064ZM128.028 41.4547C128.028 42.0727 128.18 42.5687 128.486 42.9426C128.791 43.3164 129.195 43.5034 129.699 43.5034C130.21 43.5034 130.618 43.3164 130.924 42.9426C131.229 42.5687 131.381 42.0727 131.381 41.4547C131.381 40.829 131.229 40.3254 130.924 39.9439C130.618 39.5623 130.21 39.3716 129.699 39.3716C129.195 39.3716 128.791 39.5623 128.486 39.9439C128.18 40.3254 128.028 40.829 128.028 41.4547Z" fill="#313131"/>
</svg>
