<svg width="152" height="47" viewBox="0 0 152 47" fill="none" xmlns="http://www.w3.org/2000/svg">
<rect x="0.863636" y="0.863636" width="150.273" height="29.3636" stroke="white" stroke-width="1.72727"/>
<path d="M22.4592 7.24947H27.5187L27.4979 21.8242H24.7287V8.9568L21.314 21.8242H17.358L13.9434 8.9568V21.8242H11.1533V7.24947H16.2545L19.3568 20.0961L22.4592 7.24947ZM37.958 10.914H40.9146L37.3126 22.6987C36.9378 24.0451 36.4242 24.9682 35.7718 25.4679C35.1194 25.9815 34.1547 26.2383 32.8777 26.2383C32.3919 26.2383 31.8922 26.2105 31.3786 26.155V24.0313C31.9893 24.059 32.4266 24.0729 32.6903 24.0729C33.2872 24.0729 33.7383 23.9549 34.0437 23.7189C34.349 23.4968 34.5989 23.0457 34.7932 22.3656L34.939 21.8242H33.2941L29.4838 10.914H32.4821L35.522 20.6791L37.958 10.914ZM41.9806 14.5368C41.9806 12.2604 42.5635 10.4351 43.7295 9.0609C44.9094 7.68671 46.5473 6.99962 48.6433 6.99962C50.3784 6.99962 51.7873 7.45074 52.87 8.35299C53.9527 9.24135 54.612 10.449 54.848 11.9759L52.058 12.2257C51.9053 11.3651 51.5166 10.678 50.892 10.1644C50.2812 9.63695 49.5317 9.37322 48.6433 9.37322C47.4079 9.37322 46.471 9.87292 45.8325 10.8723C45.2078 11.8579 44.8955 13.0794 44.8955 14.5368C44.8955 16.0637 45.2425 17.306 45.9366 18.2638C46.6445 19.2216 47.6092 19.7005 48.8307 19.7005C49.7746 19.7005 50.545 19.4159 51.1418 18.8468C51.7387 18.2638 52.1065 17.5281 52.2453 16.6398L55.0354 16.8272C54.8272 18.4651 54.1886 19.7491 53.1198 20.6791C52.0649 21.6091 50.6352 22.0741 48.8307 22.0741C46.6653 22.0741 44.9788 21.3939 43.7712 20.0336C42.5774 18.6733 41.9806 16.841 41.9806 14.5368ZM56.4562 18.8468C56.4562 16.8341 57.9831 15.682 61.0369 15.3905L63.8894 15.099V14.5577C63.8894 13.9747 63.7159 13.5097 63.3688 13.1627C63.0218 12.8156 62.4944 12.6421 61.7864 12.6421C61.1618 12.6421 60.6482 12.7809 60.2457 13.0585C59.857 13.3362 59.6419 13.7456 59.6002 14.287H57.0601C57.1017 13.0238 57.5598 12.1077 58.4342 11.5386C59.3087 10.9556 60.4261 10.6641 61.7864 10.6641C63.355 10.6641 64.5626 11.0389 65.4093 11.7885C66.256 12.538 66.6794 13.6554 66.6794 15.1407V21.8242H64.0768V19.8462C63.3133 21.3315 61.9877 22.0741 60.0999 22.0741C58.9201 22.0741 58.0178 21.7756 57.3932 21.1788C56.7686 20.5819 56.4562 19.8046 56.4562 18.8468ZM59.2254 18.7011C59.2254 19.1314 59.3712 19.4784 59.6627 19.7421C59.9681 20.0058 60.4122 20.1377 60.9952 20.1377C61.8558 20.1377 62.5499 19.867 63.0773 19.3257C63.6187 18.7705 63.8894 18.0903 63.8894 17.2852V16.8063L61.3908 17.0562C59.9472 17.195 59.2254 17.7433 59.2254 18.7011ZM69.135 21.8242V10.914H71.7376V12.7879C72.4316 11.372 73.5907 10.6641 75.2147 10.6641C76.8943 10.6641 77.9701 11.4137 78.442 12.9128C79.1222 11.4137 80.309 10.6641 82.0024 10.6641C83.099 10.6641 83.9526 11.0181 84.5634 11.726C85.1741 12.42 85.4795 13.4056 85.4795 14.6826V21.8242H82.6895V15.3905C82.6895 14.6409 82.5368 14.051 82.2314 13.6207C81.9399 13.1765 81.4958 12.9544 80.8989 12.9544C80.2187 12.9544 79.6843 13.2321 79.2957 13.7873C78.907 14.3286 78.7127 15.0921 78.7127 16.0776V21.8242H75.9226V15.3905C75.9226 14.6409 75.77 14.051 75.4646 13.6207C75.1731 13.1765 74.7289 12.9544 74.132 12.9544C73.4519 12.9544 72.9105 13.2321 72.508 13.7873C72.1193 14.3286 71.925 15.0921 71.925 16.0776V21.8242H69.135ZM87.9431 25.9884V10.914H90.5457V12.9128C91.323 11.4137 92.5515 10.6641 94.231 10.6641C95.6052 10.6641 96.7226 11.1777 97.5832 12.2049C98.4577 13.2182 98.895 14.6062 98.895 16.3691C98.895 18.1319 98.4577 19.527 97.5832 20.5541C96.7226 21.5674 95.6122 22.0741 94.2519 22.0741C92.6972 22.0741 91.5243 21.4147 90.7331 20.0961V25.9884H87.9431ZM91.3577 13.8081C90.858 14.4605 90.6082 15.3142 90.6082 16.3691C90.6082 17.424 90.858 18.2777 91.3577 18.9301C91.8574 19.5825 92.5307 19.9087 93.3774 19.9087C94.2241 19.9087 94.8973 19.5825 95.397 18.9301C95.8967 18.2777 96.1466 17.424 96.1466 16.3691C96.1466 15.3142 95.8967 14.4605 95.397 13.8081C94.8973 13.1557 94.2241 12.8295 93.3774 12.8295C92.5307 12.8295 91.8574 13.1557 91.3577 13.8081ZM100.315 18.8468C100.315 16.8341 101.842 15.682 104.895 15.3905L107.748 15.099V14.5577C107.748 13.9747 107.574 13.5097 107.227 13.1627C106.88 12.8156 106.353 12.6421 105.645 12.6421C105.02 12.6421 104.507 12.7809 104.104 13.0585C103.715 13.3362 103.5 13.7456 103.459 14.287H100.919C100.96 13.0238 101.418 12.1077 102.293 11.5386C103.167 10.9556 104.285 10.6641 105.645 10.6641C107.213 10.6641 108.421 11.0389 109.268 11.7885C110.114 12.538 110.538 13.6554 110.538 15.1407V21.8242H107.935V19.8462C107.172 21.3315 105.846 22.0741 103.958 22.0741C102.779 22.0741 101.876 21.7756 101.252 21.1788C100.627 20.5819 100.315 19.8046 100.315 18.8468ZM103.084 18.7011C103.084 19.1314 103.23 19.4784 103.521 19.7421C103.827 20.0058 104.271 20.1377 104.854 20.1377C105.714 20.1377 106.408 19.867 106.936 19.3257C107.477 18.7705 107.748 18.0903 107.748 17.2852V16.8063L105.249 17.0562C103.806 17.195 103.084 17.7433 103.084 18.7011ZM112.973 9.37322V6.6873H115.908V9.37322H112.973ZM113.056 21.8242V10.914H115.825V21.8242H113.056ZM119.234 20.1169C118.346 19.1175 117.902 17.7919 117.902 16.1401C117.902 14.4883 118.346 13.1627 119.234 12.1632C120.123 11.1638 121.254 10.6641 122.628 10.6641C124.238 10.6641 125.425 11.3373 126.189 12.6838V10.914H128.77V20.5541C128.77 22.553 128.34 23.9966 127.48 24.8849C126.619 25.7872 125.293 26.2383 123.503 26.2383C122.017 26.2383 120.838 25.926 119.963 25.3013C119.103 24.6767 118.651 23.7398 118.61 22.4905H121.171C121.212 23.0041 121.428 23.4066 121.816 23.6981C122.219 23.9896 122.781 24.1354 123.503 24.1354C124.377 24.1354 125.009 23.8994 125.397 23.4274C125.786 22.9555 125.98 22.2337 125.98 21.262V19.867C125.217 21.033 124.1 21.616 122.628 21.616C121.254 21.616 120.123 21.1163 119.234 20.1169ZM121.441 13.7665C120.928 14.3772 120.671 15.1892 120.671 16.2025C120.671 17.2158 120.921 18.0209 121.421 18.6178C121.934 19.2146 122.607 19.5131 123.44 19.5131C124.273 19.5131 124.939 19.2146 125.439 18.6178C125.939 18.0209 126.189 17.2158 126.189 16.2025C126.189 15.1892 125.932 14.3772 125.418 13.7665C124.919 13.1418 124.259 12.8295 123.44 12.8295C122.621 12.8295 121.955 13.1418 121.441 13.7665ZM131.334 21.8242V10.914H133.936V12.8295C134.658 11.3859 135.928 10.6641 137.747 10.6641C138.996 10.6641 139.933 11.025 140.558 11.7468C141.196 12.4547 141.515 13.4958 141.515 14.87V21.8242H138.746V15.7236C138.746 14.8075 138.58 14.1204 138.246 13.6624C137.927 13.1904 137.4 12.9544 136.664 12.9544C135.845 12.9544 135.214 13.239 134.769 13.8081C134.339 14.3633 134.124 15.1198 134.124 16.0776V21.8242H131.334Z" fill="white"/>
<path d="M20.2212 41.5462C20.2212 40.5466 20.4768 39.776 20.988 39.2342C21.4992 38.6849 22.1936 38.4102 23.0711 38.4102C23.7883 38.4102 24.3911 38.6009 24.8795 38.9824C25.3678 39.3563 25.6577 39.8866 25.7493 40.5734L24.5704 40.6764C24.4941 40.2491 24.3186 39.9248 24.0439 39.7035C23.7769 39.4822 23.4526 39.3716 23.0711 39.3716C22.5751 39.3716 22.1783 39.5623 21.8807 39.9439C21.5832 40.3254 21.4344 40.8595 21.4344 41.5462C21.4344 42.2329 21.5832 42.7671 21.8807 43.1486C22.186 43.5301 22.5942 43.7209 23.1054 43.7209C23.5098 43.7209 23.8455 43.6064 24.1126 43.3775C24.3873 43.1409 24.5628 42.8014 24.6391 42.3588L25.818 42.4504C25.7264 43.16 25.4326 43.7094 24.9367 44.0985C24.4483 44.4877 23.8379 44.6823 23.1054 44.6823C22.2127 44.6823 21.5069 44.4114 20.988 43.8696C20.4768 43.3279 20.2212 42.5534 20.2212 41.5462ZM26.9238 44.5449V36.1211H28.1485V39.4975C28.5376 38.7726 29.2129 38.4102 30.1743 38.4102C30.8458 38.4102 31.357 38.6009 31.708 38.9824C32.059 39.3563 32.2345 39.9095 32.2345 40.642V44.5449H31.0098V41.0312C31.0098 39.9553 30.5825 39.4174 29.7279 39.4174C29.2243 39.4174 28.8352 39.5852 28.5605 39.921C28.2858 40.2491 28.1485 40.7031 28.1485 41.283V44.5449H26.9238ZM33.3884 42.954C33.3884 41.8552 34.1934 41.2296 35.8034 41.077L37.4973 40.9167V40.4589C37.4973 40.1079 37.3867 39.8256 37.1654 39.6119C36.9518 39.3983 36.6275 39.2915 36.1926 39.2915C35.8034 39.2915 35.4829 39.383 35.2311 39.5662C34.9793 39.7417 34.842 40.0011 34.8191 40.3444H33.6974C33.7203 39.6806 33.9607 39.1923 34.4185 38.8794C34.8763 38.5666 35.4677 38.4102 36.1926 38.4102C37.009 38.4102 37.6347 38.6047 38.0696 38.9939C38.5045 39.383 38.722 39.9553 38.722 40.7107V44.5449H37.5889V43.3775C37.3981 43.7895 37.112 44.11 36.7305 44.3389C36.349 44.5678 35.8873 44.6823 35.3456 44.6823C34.697 44.6823 34.2087 44.522 33.8806 44.2016C33.5525 43.8811 33.3884 43.4652 33.3884 42.954ZM34.6016 42.8968C34.6016 43.1715 34.6932 43.3966 34.8763 43.5721C35.0671 43.7399 35.3494 43.8239 35.7233 43.8239C36.265 43.8239 36.6962 43.656 37.0166 43.3203C37.3371 42.9769 37.4973 42.5382 37.4973 42.004V41.6836L35.9636 41.8324C35.0556 41.9239 34.6016 42.2787 34.6016 42.8968ZM40.1799 36.1211H41.4046V44.5449H40.1799V36.1211ZM42.9184 36.1211H44.143V44.5449H42.9184V36.1211ZM45.3363 41.5462C45.3363 40.5161 45.6034 39.7378 46.1375 39.2113C46.6716 38.6772 47.3812 38.4102 48.2663 38.4102C50.1357 38.4102 51.0705 39.5242 51.0705 41.7522V41.901H46.561C46.6067 42.5191 46.786 42.9922 47.0989 43.3203C47.4194 43.6407 47.8352 43.801 48.3464 43.801C49.0713 43.801 49.5635 43.4919 49.8229 42.8739L50.9903 42.954C50.8301 43.4958 50.5211 43.9192 50.0633 44.2244C49.6131 44.5297 49.0408 44.6823 48.3464 44.6823C47.4232 44.6823 46.6907 44.419 46.1489 43.8925C45.6072 43.366 45.3363 42.5839 45.3363 41.5462ZM46.5724 41.0998H49.8572C49.8343 40.5352 49.6817 40.0926 49.3994 39.7722C49.1171 39.4517 48.7394 39.2915 48.2663 39.2915C47.7932 39.2915 47.4041 39.4441 47.0989 39.7493C46.8013 40.0545 46.6258 40.5047 46.5724 41.0998ZM52.2401 44.5449V38.5475H53.3732V39.6577C53.7547 38.826 54.4605 38.4102 55.4906 38.4102C56.1621 38.4102 56.6733 38.6009 57.0243 38.9824C57.3753 39.3563 57.5508 39.9095 57.5508 40.642V44.5449H56.3261V41.0312C56.3261 39.9553 55.8988 39.4174 55.0443 39.4174C54.5407 39.4174 54.1515 39.5852 53.8768 39.921C53.6021 40.2491 53.4648 40.7031 53.4648 41.283V44.5449H52.2401ZM59.3915 43.6064C58.9184 43.057 58.6818 42.3283 58.6818 41.4203C58.6818 40.5123 58.9184 39.7836 59.3915 39.2342C59.8722 38.6849 60.4864 38.4102 61.2342 38.4102C61.6767 38.4102 62.0697 38.517 62.4131 38.7306C62.7641 38.9443 63.0387 39.2419 63.2371 39.6234V38.5475H64.3702V44.007C64.3702 45.0294 64.149 45.7772 63.7064 46.2503C63.2638 46.731 62.5695 46.9714 61.6233 46.9714C60.845 46.9714 60.227 46.8035 59.7692 46.4678C59.319 46.1397 59.0824 45.6437 59.0595 44.9798H60.1926C60.2155 45.3232 60.3491 45.5865 60.5932 45.7696C60.845 45.9527 61.1884 46.0443 61.6233 46.0443C62.1651 46.0443 62.5542 45.8993 62.7908 45.6093C63.0273 45.327 63.1456 44.8959 63.1456 44.316V43.366C62.7335 44.0757 62.1002 44.4305 61.2456 44.4305C60.4902 44.4305 59.8722 44.1558 59.3915 43.6064ZM59.8951 41.4547C59.8951 42.0727 60.0477 42.5687 60.3529 42.9426C60.6581 43.3164 61.0625 43.5034 61.5661 43.5034C62.0773 43.5034 62.4855 43.3164 62.7908 42.9426C63.096 42.5687 63.2486 42.0727 63.2486 41.4547C63.2486 40.829 63.096 40.3254 62.7908 39.9439C62.4855 39.5623 62.0773 39.3716 61.5661 39.3716C61.0625 39.3716 60.6581 39.5623 60.3529 39.9439C60.0477 40.3254 59.8951 40.829 59.8951 41.4547ZM65.5558 41.5462C65.5558 40.5161 65.8229 39.7378 66.357 39.2113C66.8911 38.6772 67.6007 38.4102 68.4858 38.4102C70.3553 38.4102 71.29 39.5242 71.29 41.7522V41.901H66.7805C66.8263 42.5191 67.0056 42.9922 67.3184 43.3203C67.6389 43.6407 68.0547 43.801 68.566 43.801C69.2908 43.801 69.783 43.4919 70.0424 42.8739L71.2099 42.954C71.0496 43.4958 70.7406 43.9192 70.2828 44.2244C69.8326 44.5297 69.2603 44.6823 68.566 44.6823C67.6427 44.6823 66.9102 44.419 66.3684 43.8925C65.8267 43.366 65.5558 42.5839 65.5558 41.5462ZM66.7919 41.0998H70.0768C70.0539 40.5352 69.9013 40.0926 69.6189 39.7722C69.3366 39.4517 68.9589 39.2915 68.4858 39.2915C68.0128 39.2915 67.6236 39.4441 67.3184 39.7493C67.0208 40.0545 66.8453 40.5047 66.7919 41.0998ZM74.7546 41.5462C74.7546 40.5161 75.0217 39.7378 75.5558 39.2113C76.0899 38.6772 76.7996 38.4102 77.6847 38.4102C79.5541 38.4102 80.4888 39.5242 80.4888 41.7522V41.901H75.9793C76.0251 42.5191 76.2044 42.9922 76.5172 43.3203C76.8377 43.6407 77.2536 43.801 77.7648 43.801C78.4897 43.801 78.9818 43.4919 79.2413 42.8739L80.4087 42.954C80.2484 43.4958 79.9394 43.9192 79.4816 44.2244C79.0314 44.5297 78.4591 44.6823 77.7648 44.6823C76.8415 44.6823 76.109 44.419 75.5673 43.8925C75.0255 43.366 74.7546 42.5839 74.7546 41.5462ZM75.9907 41.0998H79.2756C79.2527 40.5352 79.1001 40.0926 78.8178 39.7722C78.5354 39.4517 78.1578 39.2915 77.6847 39.2915C77.2116 39.2915 76.8224 39.4441 76.5172 39.7493C76.2197 40.0545 76.0442 40.5047 75.9907 41.0998ZM85.5768 38.5475H86.8816L84.8214 44.5449H82.9787L80.93 38.5475H82.2462L83.9058 43.8353L85.5768 38.5475ZM87.3066 41.5462C87.3066 40.5161 87.5737 39.7378 88.1078 39.2113C88.6419 38.6772 89.3515 38.4102 90.2366 38.4102C92.1061 38.4102 93.0408 39.5242 93.0408 41.7522V41.901H88.5313C88.5771 42.5191 88.7564 42.9922 89.0692 43.3203C89.3897 43.6407 89.8055 43.801 90.3168 43.801C91.0416 43.801 91.5338 43.4919 91.7932 42.8739L92.9607 42.954C92.8004 43.4958 92.4914 43.9192 92.0336 44.2244C91.5834 44.5297 91.0111 44.6823 90.3168 44.6823C89.3935 44.6823 88.661 44.419 88.1192 43.8925C87.5775 43.366 87.3066 42.5839 87.3066 41.5462ZM88.5427 41.0998H91.8276C91.8047 40.5352 91.6521 40.0926 91.3697 39.7722C91.0874 39.4517 90.7097 39.2915 90.2366 39.2915C89.7636 39.2915 89.3744 39.4441 89.0692 39.7493C88.7716 40.0545 88.5961 40.5047 88.5427 41.0998ZM97.129 38.4331C97.3732 38.4331 97.5983 38.4598 97.8043 38.5132V39.6005C97.5144 39.5471 97.2359 39.5204 96.9688 39.5204C96.4499 39.5204 96.0646 39.6882 95.8128 40.024C95.561 40.3521 95.4351 40.8671 95.4351 41.5691V44.5449H94.2105V38.5475H95.3436V39.7493C95.6717 38.8718 96.2668 38.4331 97.129 38.4331ZM103.07 38.5475H104.375L102.246 45.1515C102.048 45.8459 101.792 46.3228 101.48 46.5822C101.167 46.8416 100.694 46.9714 100.06 46.9714C99.8238 46.9714 99.5796 46.9561 99.3278 46.9256V45.987C99.633 46.0023 99.8505 46.0099 99.9802 46.0099C100.301 46.0099 100.545 45.9375 100.713 45.7925C100.881 45.6551 101.022 45.3881 101.136 44.9913L101.274 44.5449H100.564L98.3778 38.5475H99.6941L101.548 44.0528L103.07 38.5475ZM108.708 39.4746H107.255V42.7022C107.255 43.0608 107.304 43.305 107.403 43.4347C107.51 43.5644 107.712 43.6293 108.01 43.6293C108.208 43.6293 108.441 43.6102 108.708 43.5721V44.5564C108.365 44.6098 108.056 44.6365 107.781 44.6365C107.155 44.6365 106.705 44.5068 106.431 44.2473C106.163 43.9803 106.03 43.5301 106.03 42.8968V39.4746H104.782V38.5704H105.721C105.858 38.5704 105.954 38.5437 106.007 38.4903C106.068 38.4292 106.099 38.3339 106.099 38.2041V37.2084H107.255V38.5475H108.708V39.4746ZM109.847 44.5449V36.1211H111.072V39.4975C111.461 38.7726 112.136 38.4102 113.098 38.4102C113.769 38.4102 114.281 38.6009 114.632 38.9824C114.983 39.3563 115.158 39.9095 115.158 40.642V44.5449H113.933V41.0312C113.933 39.9553 113.506 39.4174 112.651 39.4174C112.148 39.4174 111.759 39.5852 111.484 39.921C111.209 40.2491 111.072 40.7031 111.072 41.283V44.5449H109.847ZM116.587 37.6204V36.2584H117.88V37.6204H116.587ZM116.621 44.5449V38.5475H117.846V44.5449H116.621ZM119.381 44.5449V38.5475H120.515V39.6577C120.896 38.826 121.602 38.4102 122.632 38.4102C123.303 38.4102 123.815 38.6009 124.166 38.9824C124.517 39.3563 124.692 39.9095 124.692 40.642V44.5449H123.467V41.0312C123.467 39.9553 123.04 39.4174 122.186 39.4174C121.682 39.4174 121.293 39.5852 121.018 39.921C120.743 40.2491 120.606 40.7031 120.606 41.283V44.5449H119.381ZM126.533 43.6064C126.06 43.057 125.823 42.3283 125.823 41.4203C125.823 40.5123 126.06 39.7836 126.533 39.2342C127.014 38.6849 127.628 38.4102 128.376 38.4102C128.818 38.4102 129.211 38.517 129.554 38.7306C129.905 38.9443 130.18 39.2419 130.378 39.6234V38.5475H131.512V44.007C131.512 45.0294 131.29 45.7772 130.848 46.2503C130.405 46.731 129.711 46.9714 128.765 46.9714C127.986 46.9714 127.368 46.8035 126.911 46.4678C126.46 46.1397 126.224 45.6437 126.201 44.9798H127.334C127.357 45.3232 127.49 45.5865 127.735 45.7696C127.986 45.9527 128.33 46.0443 128.765 46.0443C129.306 46.0443 129.696 45.8993 129.932 45.6093C130.169 45.327 130.287 44.8959 130.287 44.316V43.366C129.875 44.0757 129.242 44.4305 128.387 44.4305C127.632 44.4305 127.014 44.1558 126.533 43.6064ZM127.036 41.4547C127.036 42.0727 127.189 42.5687 127.494 42.9426C127.799 43.3164 128.204 43.5034 128.707 43.5034C129.219 43.5034 129.627 43.3164 129.932 42.9426C130.237 42.5687 130.39 42.0727 130.39 41.4547C130.39 40.829 130.237 40.3254 129.932 39.9439C129.627 39.5623 129.219 39.3716 128.707 39.3716C128.204 39.3716 127.799 39.5623 127.494 39.9439C127.189 40.3254 127.036 40.829 127.036 41.4547Z" fill="white"/>
</svg>
