<svg width="24" height="24" viewBox="0 0 24 24" fill="none" xmlns="http://www.w3.org/2000/svg">
<rect x="0.268555" width="23.731" height="23.731" rx="5.27356" fill="#4AC833"/>
<path fill-rule="evenodd" clip-rule="evenodd" d="M7.8854 3.97013C7.79043 3.99084 7.71345 4.02079 7.59482 4.08317C7.45433 4.15705 7.36787 4.22445 7.0544 4.50441C6.90872 4.63451 6.75316 4.7691 6.70871 4.80351C6.5641 4.91544 6.42041 5.04504 6.26708 5.20181C5.50633 5.97966 5.04109 6.99159 4.9149 8.14286C4.78159 9.3591 5.06425 10.7033 5.75168 12.1225C6.43759 13.5385 7.6003 15.1298 8.99717 16.5643C10.0577 17.6534 11.014 18.4058 12.042 18.9597C13.3926 19.6876 14.7486 19.9328 16.0155 19.6783C16.8651 19.5076 17.707 19.0676 18.3062 18.4811C18.3641 18.4245 18.5399 18.2635 18.697 18.1234C18.854 17.9833 19.0215 17.8266 19.069 17.7752C19.4661 17.3461 19.489 16.8686 19.1381 16.335C19.0077 16.1367 18.8275 15.9268 18.6105 15.7201C18.4396 15.5575 17.7473 14.9491 17.5544 14.7921C17.1002 14.4225 16.705 14.1992 16.3371 14.1043C15.942 14.0025 15.5782 14.0518 15.2361 14.2535C15.1066 14.3298 14.9953 14.4194 14.6589 14.7182C14.4325 14.9193 14.3066 15.0395 14.2136 15.1438C13.9242 15.4682 13.7044 15.6148 13.427 15.6683C13.3208 15.6888 13.1153 15.689 12.9994 15.6688C12.2682 15.541 11.3429 14.8095 10.209 13.4626C9.43212 12.5398 8.91408 11.7032 8.73869 11.0881C8.67221 10.855 8.66266 10.7869 8.66289 10.548C8.66308 10.3548 8.66569 10.3194 8.68486 10.2491C8.74027 10.0459 8.82974 9.88502 8.96984 9.73657C9.07345 9.62678 9.15599 9.55908 9.35571 9.42003C9.52084 9.30507 9.97394 8.91415 10.1786 8.71007C10.5041 8.3854 10.6509 8.04984 10.6509 7.63027C10.6509 7.27877 10.5533 6.92312 10.3348 6.47903C10.2066 6.21824 10.0702 5.98912 9.60158 5.24678C9.2015 4.61308 8.85866 4.24166 8.51165 4.06596C8.34691 3.98254 8.23382 3.95404 8.07199 3.95511C8.00519 3.95556 7.92122 3.96231 7.8854 3.97013Z" fill="white"/>
</svg>
