<svg width="500" height="500" viewBox="0 0 500 500" fill="none" xmlns="http://www.w3.org/2000/svg">
<g clip-path="url(#clip0_1932_6316)">
<rect width="500" height="500" fill="#DDDDDD"/>
<circle cx="250" cy="250" r="213" fill="white"/>
<path fill-rule="evenodd" clip-rule="evenodd" d="M153.879 248.886C153.879 194.825 196.861 151 249.882 151C302.903 151 345.885 194.825 345.885 248.886C345.885 282.831 328.939 312.74 303.202 330.299C360.961 352.329 402.082 409.115 402.082 475.694V516.281H97.6816V475.694C97.6816 409.115 138.803 352.329 196.563 330.299C170.825 312.74 153.879 282.831 153.879 248.886ZM249.882 303.797C279.625 303.797 303.737 279.212 303.737 248.886C303.737 218.559 279.625 193.974 249.882 193.974C220.138 193.974 196.026 218.559 196.026 248.886C196.026 279.212 220.138 303.797 249.882 303.797ZM249.882 363.484C189.884 363.484 141.1 412.437 139.854 473.307H359.91C358.664 412.437 309.88 363.484 249.882 363.484Z" fill="#DDDDDD"/>
</g>
<defs>
<clipPath id="clip0_1932_6316">
<rect width="500" height="500" fill="white"/>
</clipPath>
</defs>
</svg>
