<svg width="24" height="24" viewBox="0 0 24 24" fill="none" xmlns="http://www.w3.org/2000/svg">
<rect x="0.0898438" width="23.731" height="23.731" rx="5.27356" fill="url(#paint0_linear_773_17550)"/>
<path d="M19.8523 6.41176C19.9756 5.65325 19.2184 5.05454 18.5102 5.35065L4.40565 11.2484C3.89782 11.4608 3.93496 12.1933 4.46167 12.3531L7.37038 13.2353C7.92552 13.4036 8.52665 13.3166 9.01142 12.9976L15.5693 8.68268C15.767 8.55256 15.9826 8.82034 15.8136 8.98624L11.0931 13.6213C10.6352 14.071 10.7261 14.8329 11.2769 15.1618L16.562 18.3182C17.1548 18.6723 17.9174 18.3166 18.0283 17.6344L19.8523 6.41176Z" fill="white"/>
<defs>
<linearGradient id="paint0_linear_773_17550" x1="-11.6424" y1="-56.8847" x2="68.9191" y2="-29.6908" gradientUnits="userSpaceOnUse">
<stop stop-color="#37BBFE"/>
<stop offset="1" stop-color="#007DBB"/>
</linearGradient>
</defs>
</svg>
